<?xml version="1.0" standalone="no"?><!DOCTYPE svg PUBLIC "-//W3C//DTD SVG 1.1//EN" "http://www.w3.org/Graphics/SVG/1.1/DTD/svg11.dtd"><svg t="1624079938650" class="icon" viewBox="0 0 1024 1024" version="1.1" xmlns="http://www.w3.org/2000/svg" p-id="23793" xmlns:xlink="http://www.w3.org/1999/xlink" width="200" height="200"><defs><style type="text/css"></style></defs><path d="M351.232 886.784c-55.296 0-110.5408-21.0432-152.6272-63.1296-84.1728-84.1728-84.1728-221.1328 0-305.3056l317.184-317.184c84.1728-84.1728 221.1328-84.1728 305.3056 0 84.1728 84.1728 84.1728 221.1328 0 305.3056l-317.184 317.184c-42.1376 42.0864-97.3824 63.1296-152.6784 63.1296z m317.184-697.5488c-42.1888 0-84.3264 16.0768-116.4288 48.1792l-317.184 317.184c-64.2048 64.2048-64.2048 168.704 0 232.9088 31.1296 31.1296 72.448 48.2304 116.4288 48.2304 43.9808 0 85.3504-17.152 116.4288-48.2304l317.184-317.184c31.1296-31.1296 48.2304-72.448 48.2304-116.4288 0-43.9808-17.152-85.3504-48.2304-116.4288-32.0512-32.2048-74.24-48.2304-116.4288-48.2304z" fill="#1296db" p-id="23794"></path><path d="M394.83904 448.1536l50.688-50.68288 183.65952 183.65952-50.688 50.688z" fill="#1296db" p-id="23795"></path></svg>