<?xml version="1.0" standalone="no"?><!DOCTYPE svg PUBLIC "-//W3C//DTD SVG 1.1//EN" "http://www.w3.org/Graphics/SVG/1.1/DTD/svg11.dtd"><svg t="1624327374255" class="icon" viewBox="0 0 1024 1024" version="1.1" xmlns="http://www.w3.org/2000/svg" p-id="3314" xmlns:xlink="http://www.w3.org/1999/xlink" width="200" height="200"><defs><style type="text/css"></style></defs><path d="M348.988 204.812c1.733-59.198 50.231-106.597 109.818-106.59 7.033-0.019 14.019 0.682 20.909 2.016l18.31 3.515c50.18 9.712 85.707 52.247 88.764 100.942 26.003 4.04 49.998 19.4 64.198 43.995 24.9 43.128 10.063 98.23-33.065 123.13-27.973 16.15-60.845 15.613-87.451 1.53l-67.152 167.288-114.556-38.015 0.064-83.29c-32.367-4.061-62.566-22.768-80.116-53.165-29.85-51.702-12.135-117.818 39.567-147.668 12.99-7.5 26.838-11.915 40.71-13.688z" fill="#1296db" p-id="3315"></path><path d="M463.319 540.638l-114.556-38.015 0.064-83.29c-33.856-4.24-63.066-23.634-80.116-53.165-14.45-25.028-18.3-54.098-10.747-82.015 7.467-27.867 25.372-51.253 50.4-65.703 12.645-7.3 26.256-11.925 40.574-13.725 0.877-28.681 12.615-55.55 33.277-75.562s47.777-31.048 76.54-31.027c7.034-0.02 14.02 0.681 20.91 2.015l18.31 3.516c49.137 9.505 85.59 51.044 88.764 100.942 27.133 4.195 50.498 20.266 64.198 43.995 24.85 43.041 10.063 98.229-33.065 123.129-27.107 15.65-59.775 16.266-87.451 1.53l-67.102 167.375z m-92.523-53.853l79.86 26.523 68.515-170.73 21.608 11.426c20.962 11.107 45.668 10.7 66.193-1.15 32.562-18.8 43.763-60.601 25.013-93.077-10.35-17.927-28.104-30.078-48.547-33.286l-17.501-2.713-1.059-17.633c-2.485-39.904-31.719-73.14-70.973-80.73l-18.31-3.515a83.23 83.23 0 0 0-16.765-1.637c-22.984-0.009-44.763 8.87-61.275 24.87s-25.93 37.487-26.66 60.424l-0.573 18.807-18.682 2.241c-11.43 1.403-22.23 5.098-32.362 10.948-19.919 11.5-34.211 30.144-40.14 52.274-5.967 22.266-2.875 45.422 8.625 65.34 13.6 23.557 36.839 39.007 63.832 42.36l19.186 2.433 0.015 86.825z" fill="#1296db" p-id="3316"></path><path d="M439.4 344.2c-16.5-14.4-26.8-34.5-26.8-56.7 0-43 38.4-78 86.5-79.4l2.1-4.7c24.4-55.6 89.2-80.9 144.7-56.5 8.5 3.7 16.5 8.5 23.8 14.3l29.2 23c47.7 37.5 56 106.6 18.5 154.3-3.9 5-8.2 9.6-12.9 13.8L487.6 547.1l-101.2-82 53-120.9z" fill="#1296db" p-id="3317"></path><path d="M487.6 547.1l-101.2-82 53-120.9c-17.3-15.1-26.8-35.2-26.8-56.7 0-20.9 9.1-40.7 25.6-55.6 16.2-14.7 37.8-23.1 60.9-23.8l2.1-4.7c24.3-55.5 89.3-80.8 144.7-56.5 8.5 3.7 16.5 8.5 23.8 14.3l29.2 23c23.1 18.1 37.7 44.2 41.2 73.3 3.5 29.1-4.6 57.9-22.7 81-3.9 4.9-8.2 9.6-12.9 13.8L487.6 547.1z m-74.4-88.5l73.6 59.6 202.9-182.4c3.7-3.4 7.2-7.1 10.3-11 14.5-18.5 21-41.5 18.2-64.8-2.8-23.3-14.5-44.1-32.9-58.7l-29.2-23c-5.8-4.6-12.2-8.4-19-11.4-44.4-19.5-96.3 0.8-115.8 45.2l-7.6 17.4-13.9 0.4c-17.9 0.5-34.5 7-46.8 18.1-11.8 10.7-18.4 24.7-18.4 39.4 0 15.1 6.8 29.3 19.3 40.1l12.2 10.6-52.9 120.5z" fill="#1296db" p-id="3318"></path><path d="M487 436.3c-0.9 0-1.8-0.1-2.7-0.3-6-1.5-9.7-7.6-8.2-13.6 14.1-57.1 38.4-104.3 72.4-140.2 34.9-36.9 64.1-56.5 89.2-59.8 6.2-0.8 11.8 3.5 12.6 9.7 0.8 6.2-3.5 11.8-9.7 12.6-19.5 2.6-45 20.4-75.8 52.9-31.2 33.1-53.7 76.9-66.9 130.2-1.2 5.1-5.8 8.5-10.9 8.5z" fill="#1296db" p-id="3319"></path><path d="M208.5 755.5l71.6 60.1c-10.6 12.7-29.5 14.3-42.2 3.7l-25.7-21.5c-12.7-10.7-14.4-29.6-3.7-42.3z" fill="#1296db" p-id="3320"></path><path d="M257.1 837.3c-9.3 0-18.6-3.1-26.3-9.6l-25.7-21.5c-8.4-7-13.5-16.9-14.5-27.8-1-10.9 2.4-21.5 9.4-29.9l7.1-8.4 88.4 74.2-7.1 8.4c-8 9.6-19.6 14.6-31.3 14.6z m-44.6-64c-0.1 1.1-0.1 2.1 0 3.2 0.4 5.1 2.8 9.6 6.7 12.9l25.7 21.5c4.9 4.1 11.2 5.3 17 3.8l-49.4-41.4z" fill="#1296db" p-id="3321"></path><path d="M466.342 445.03c29.271 32.637 51.913 54.174 67.735 64.731 14.846 9.854 49.67-5.97 104.421-47.387a3.273 3.273 0 0 1 4.613 0.671 3.397 3.397 0 0 1 0.307 3.568L480.192 781.758c-26.323 50.799-87.253 72.986-140.078 50.812l-25.632-10.734c-48.745-20.422-71.707-76.569-51.285-125.313 3.59-8.692 8.568-16.784 14.61-24.12l188.535-227.374z" fill="#1296db" p-id="3322"></path><path d="M382.692 841.12c-14.44-0.043-28.845-2.864-42.44-8.584l-25.633-10.735c-23.592-9.859-41.896-28.323-51.588-51.996-9.692-23.673-9.556-49.724 0.303-73.316 3.59-8.693 8.569-16.784 14.61-24.12L466.428 445.08l8.517 9.317c25.107 27.336 44.972 45.922 59.27 55.329 12.376 8.137 38.776-1.433 78.427-28.59l15.992 14.158-148.305 286.429c-12.672 24.585-34.087 43.333-60.075 52.8a110.435 110.435 0 0 1-37.562 6.597z m84.555-362.648L294.845 686.373c-4.651 5.606-8.411 11.863-11.262 18.55-7.643 18.156-7.673 38.205-0.207 56.457 7.466 18.252 21.57 32.444 39.728 40.087l25.632 10.735c20.42 8.536 43.16 9.134 63.934 1.55 20.859-7.533 37.898-22.494 48.132-42.245l130.206-251.454c-30.948 16.17-52.799 18.557-68.93 7.93-14.263-9.269-32.243-25.556-54.831-49.511z" fill="#1296db" p-id="3323"></path><path d="M440.3 356.4c-16.9 49.8-21.8 77.9-14.8 84.4s12 3.7 14.8-8.3L365 682.7c-17.2 57.1-77.4 89.4-134.4 72.2-13.2-4-25.6-10.5-36.3-19.1L180 724.3c-47.4-37.9-55-107.1-17.1-154.4 5.7-7.1 12.3-13.5 19.6-19.1l257.8-194.4z" fill="#1296db" p-id="3324"></path><path d="M195.6 568.4c-5.8 4.4-11.1 9.5-15.7 15.2-30.3 37.9-24.2 93.2 13.7 123.6l14.3 11.5c8.6 6.9 18.4 12 28.9 15.2 45.4 13.7 93.4-12.1 107.1-57.5l66.2-219.9c-6.4-6.2-9-14.1-9.6-23.3-0.4-5.9 0.2-12.6 1.4-20.4L195.6 568.4z m244.6-135.9c-0.5 2-1 3.8-1.6 5.3l1.6-5.3z m0 0l-1.6 5.3c0.6-1.5 1.2-3.2 1.6-5.3z m-75.3 250.2c-17.2 57.1-77.4 89.4-134.4 72.2-13.2-4-25.6-10.5-36.3-19.1l-14.3-11.5c-47.4-37.9-55-107.1-17.1-154.4 5.7-7.1 12.3-13.5 19.6-19.1l257.9-194.4c-10.8 31.7-16.7 54.6-17.7 68.7-1.2 0.8-2.1 1.7-2.9 2.6l2.8 0.6c-0.1 6.3 0.9 10.4 3.1 12.5 5.8 5.4 10.2 4.4 13.2-3l-73.9 244.9z m53.9-255.1c-0.2 0.8-0.4 1.5-0.5 1.9 0 0.1-0.1 0.2-0.1 0.3 0 0 0-0.1 0.1-0.1 0.3-0.5 0.7-1.1 1.3-1.9 0 0 0-0.1 0.1-0.1l-0.9-0.1z m-0.6 2.2z" fill="#1296db" p-id="3325"></path><path d="M433.505 418.243l66.08 8.85c12.436 1.608 23.097 9.892 27.871 21.503l24.167 58.655c0.238 0.68 0.197 1.4-0.145 2.02L398.796 765.725c-31.019 52.13-98.518 69.257-150.648 38.238a118.533 118.533 0 0 1-9.865-6.682l-5.67-4.273c-48.477-36.53-58.16-105.433-21.63-153.91 3.19-4.233 6.698-8.225 10.387-11.956l210.293-208.283c0.501-0.5 1.182-0.738 1.842-0.616z" fill="#1296db" p-id="3326"></path><path d="M304.214 819.29c-19.14-0.023-38.47-4.947-56.006-15.407a118.533 118.533 0 0 1-9.864-6.682l-5.67-4.273c-23.4-17.633-38.582-43.348-42.676-72.477-4.094-29.13 3.351-57.953 21.045-81.433 3.19-4.232 6.698-8.224 10.387-11.956L432.485 418.1l67.24 8.972c12.376 1.688 23.097 9.893 27.871 21.504l24.525 59.676-153.265 257.392c-20.579 34.454-57.162 53.59-94.642 53.645z m135.958-377.992L236.835 642.677a89.34 89.34 0 0 0-8.362 9.601c-14.143 18.768-20.175 41.894-16.908 65.142 3.267 23.247 15.44 43.815 34.208 57.958l5.67 4.272c2.556 1.926 5.232 3.692 7.888 5.318 14.102 8.372 29.513 12.347 44.793 12.342 30 0.068 59.255-15.325 75.657-42.908l147.664-247.966-20.308-49.486c-1.75-4.324-5.823-7.393-10.482-8.024l-56.483-7.628z" fill="#1296db" p-id="3327"></path><path d="M756.3 579.4c-14.9 51.6-54.6 86.3-93.9 79.3-39-6.9-64.4-52.3-61.2-105.4-0.5-0.1-0.9-0.2-1.4-0.3L562 570.3l-43.7-38.9 28.3-31.8c-4.6-15.2-5.8-32.5-2.7-50.3 6-34.3 26.6-61.4 52-72.9-8.5-18-11.6-40.1-7.6-63 8.9-50.2 48.9-85.2 89.5-78 26.7 4.7 47 26.5 55.2 55.1 36.9-38.2 97.7-40.7 137.6-5.1 4.2 3.8 8.1 7.9 11.6 12.3 31.7 39.8 25.2 97.9-14.7 129.6-3.5 2.8-7.2 5.3-11.1 7.6 15.6 19.8 22.9 48.8 17.6 79.2-8.9 50.2-48.9 85.2-89.5 78-10.5-1.6-20.1-6.1-28.2-12.7z" fill="#1296db" p-id="3328"></path><path d="M555 552.8c-4.2 0-8.2-2.4-10.2-6.4-2.7-5.6-0.3-12.3 5.3-15 75.7-36.3 130.2-71.7 161.8-105.1 31.7-33.5 51.4-58.8 58.5-75 2.5-5.7 9.2-8.3 14.9-5.8 5.7 2.5 8.3 9.2 5.8 14.9-8.3 18.9-28.8 45.5-62.8 81.4-33.5 35.5-90.2 72.5-168.4 110-1.6 0.6-3.3 1-4.9 1z" fill="#1296db" p-id="3329"></path><path d="M713.9 523.8c-23.6 0-46.2-8.9-67.6-26.5-4-3.3-4.6-9.2-1.3-13.2s9.2-4.6 13.2-1.3c22.6 18.7 45.7 25.5 70.5 20.7 24.5-4.7 41.7-18.9 52.8-43.6 2.1-4.7 7.7-6.9 12.4-4.7 4.7 2.1 6.9 7.7 4.7 12.4-13.5 30.3-35.9 48.6-66.4 54.4-6.1 1.2-12.3 1.8-18.3 1.8zM705.2 461.6c-1.4 0-2.8-0.3-4.1-1-29.8-14.6-47.3-37.5-52-68.2-4.7-30.4 4.6-59 27.7-85.1 3.4-3.9 9.4-4.2 13.3-0.8 3.9 3.4 4.2 9.4 0.8 13.3-19.5 22-27.1 44.8-23.2 69.7 3.8 24.6 17.5 42.4 41.7 54.2 4.7 2.3 6.6 7.9 4.3 12.6-1.7 3.4-5 5.3-8.5 5.3z" fill="#1296db" p-id="3330"></path><path d="M672.5 659.4c-3.4 0-6.7-0.3-10-0.9-18.2-3.2-34.4-15.2-45.6-33.9-10.6-17.7-16.3-40.8-15.9-65.1l-29.1 13.9c-8.3 4-18.1 1.7-23.9-5.4l-29.6-36.7 28.4-31.8c-4.8-15.7-5.7-33.1-2.7-50.2 5.8-33.1 25.7-61 51.9-72.9-8.7-18.6-11.4-41-7.5-63 8.8-50.2 49-85.1 89.5-78 26 4.6 46.6 25.2 55.2 55.1l1.7-1.9c34.5-38.6 93.9-42 132.6-7.6 4 3.5 7.6 7.4 11 11.6l4 5.1c15.6 19.6 22.7 44.1 19.8 69-2.8 24.9-15.2 47.2-34.8 62.8-3.1 2.5-6.4 4.8-9.8 6.8 15.5 20.6 21.5 49 16.4 77.8-8.1 45.8-42.2 78.9-78.9 78.9-3.5 0-7-0.3-10.6-0.9-10.3-1.8-19.8-6.2-28.3-12.9-7.1 24.7-20.2 46.4-36.9 60.9-14.5 12.6-30.8 19.3-46.9 19.3z m-48.9-135l-0.6 35.5c-0.7 40 17.5 72.4 43.3 76.9 12.5 2.2 26.3-2.5 38.7-13.3 13.5-11.8 24.3-29.7 30.2-50.4l9.1-31.7L770 562c5.5 4.4 11.7 7.3 18.4 8.4 13.2 2.3 27-2.3 39-12.9 12.8-11.4 21.7-28.2 25.1-47.3 4-22.5-0.7-45.2-12.3-60.8L825.6 430l20.8-12.6c2.6-1.6 5.1-3.3 7.5-5.2 31-24.7 36.1-69.9 11.4-100.9l-4-5.1c-2.5-3.2-5.4-6.2-8.4-8.9-29.6-26.4-75.2-23.8-101.6 5.8L723 334.9l-11-38.3c-6.2-21.7-20.4-36.4-37.9-39.5-13.2-2.3-27 2.3-39 12.9-12.8 11.4-21.7 28.2-25.1 47.3-3.1 17.6-1 35.3 5.8 49.8l9.5 20.1-20.2 9.2c-19.7 9-34.8 30.7-39.4 56.7-2.4 13.7-1.7 27.6 2.1 40l3.6 11.8-24.2 27.1 16.8 20.9 59.6-28.5z" fill="#1296db" p-id="3331"></path></svg>