<?xml version="1.0" standalone="no"?><!DOCTYPE svg PUBLIC "-//W3C//DTD SVG 1.1//EN" "http://www.w3.org/Graphics/SVG/1.1/DTD/svg11.dtd"><svg t="1624327417121" class="icon" viewBox="0 0 1024 1024" version="1.1" xmlns="http://www.w3.org/2000/svg" p-id="5163" xmlns:xlink="http://www.w3.org/1999/xlink" width="200" height="200"><defs><style type="text/css"></style></defs><path d="M643.7 959.4H380.3c-8.8 0-16-7.2-16-16v-500c-0.7-5.4-0.5-16 7-31.9 10.3-22.1 31-47 61.4-74.3V80.6c0-8.8 7.2-16 16-16h126.7c8.8 0 16 7.2 16 16v256.5c30.4 27.3 51 52.2 61.4 74.3 7.5 15.9 7.7 26.5 7 31.9v500c-0.1 8.9-7.2 16.1-16.1 16.1z m-247.4-32h231.4V442c0-0.9 0.1-1.9 0.2-2.8 0-2.3-1.4-28.9-63.1-82.8-3.5-3-5.5-7.4-5.5-12.1V96.6h-94.7v247.7c0 4.6-2 9-5.5 12.1-61.8 53.9-63.1 80.5-63.1 82.8 0.2 0.9 0.2 1.9 0.2 2.8v485.4zM628.2 438z m-232.4 0z m232.5-0.1c-0.1 0.1-0.1 0.1 0 0-0.1 0.1-0.1 0.1 0 0z m-232.6 0c0.1 0.1 0.1 0.1 0 0 0.1 0.1 0.1 0.1 0 0z" fill="#1296db" p-id="5164"></path><path d="M575.4 64.6H448.6c-8.8 0-16 7.2-16 16v102.3h158.6V80.6c0.2-8.8-7-16-15.8-16z m-16 86.3h-94.7V96.6h94.7v54.3z" fill="#1296db" p-id="5165"></path></svg>