<?xml version="1.0" standalone="no"?><!DOCTYPE svg PUBLIC "-//W3C//DTD SVG 1.1//EN" "http://www.w3.org/Graphics/SVG/1.1/DTD/svg11.dtd"><svg t="1624327335680" class="icon" viewBox="0 0 1024 1024" version="1.1" xmlns="http://www.w3.org/2000/svg" p-id="2252" xmlns:xlink="http://www.w3.org/1999/xlink" width="200" height="200"><defs><style type="text/css"></style></defs><path d="M453.632 199.2192H302.6432a21.5552 21.5552 0 0 1 0-43.1104H453.632a21.5552 21.5552 0 0 1 21.5552 21.5552c0 11.8784-9.6768 21.5552-21.5552 21.5552z" fill="#8a8a8a" p-id="2253"></path><path d="M453.632 206.8992H302.6432c-16.128 0-29.2352-13.1072-29.2352-29.2352s13.1072-29.2352 29.2352-29.2352H453.632c16.128 0 29.2352 13.1072 29.2352 29.2352s-13.1072 29.2352-29.2352 29.2352z m-150.9888-43.1616c-7.68 0-13.8752 6.2464-13.8752 13.8752 0 7.68 6.2464 13.8752 13.8752 13.8752H453.632c7.68 0 13.8752-6.2464 13.8752-13.8752 0-7.68-6.2464-13.8752-13.8752-13.8752H302.6432z" fill="#8a8a8a" p-id="2254"></path><path d="M226.6624 274.688H97.2288a21.5552 21.5552 0 0 1 0-43.1104h129.4336a21.5552 21.5552 0 0 1 0 43.1104z" fill="#8a8a8a" p-id="2255"></path><path d="M226.6624 282.368H97.2288c-16.128 0-29.2352-13.1072-29.2352-29.2352s13.1072-29.2352 29.2352-29.2352h129.4336c16.128 0 29.2352 13.1072 29.2352 29.2352s-13.1072 29.2352-29.2352 29.2352z m-129.4336-43.1104c-7.68 0-13.8752 6.2464-13.8752 13.8752 0 7.68 6.2464 13.8752 13.8752 13.8752h129.4336c7.68 0 13.8752-6.2464 13.8752-13.8752 0-7.68-6.2464-13.8752-13.8752-13.8752H97.2288z" fill="#8a8a8a" p-id="2256"></path><path d="M710.5024 903.1168h-129.4336a21.5552 21.5552 0 0 1 0-43.1104h129.4336a21.5552 21.5552 0 0 1 0 43.1104z" fill="#8a8a8a" p-id="2257"></path><path d="M710.5024 910.7968h-129.4336c-16.128 0-29.2352-13.1072-29.2352-29.2352s13.1072-29.2352 29.2352-29.2352h129.4336c16.128 0 29.2352 13.1072 29.2352 29.2352s-13.1072 29.2352-29.2352 29.2352z m-129.4336-43.1104c-7.68 0-13.8752 6.2464-13.8752 13.8752s6.2464 13.8752 13.8752 13.8752h129.4336c7.68 0 13.8752-6.2464 13.8752-13.8752s-6.2464-13.8752-13.8752-13.8752h-129.4336z" fill="#8a8a8a" p-id="2258"></path><path d="M154.2656 913.2544H71.5776a21.5552 21.5552 0 0 1 0-43.1104h82.688a21.5552 21.5552 0 0 1 0 43.1104z" fill="#8a8a8a" p-id="2259"></path><path d="M154.2656 920.9344H71.5776c-16.128 0-29.2352-13.1072-29.2352-29.2352s13.1072-29.2352 29.2352-29.2352h82.688c16.128 0 29.2352 13.1072 29.2352 29.2352s-13.1072 29.2352-29.2352 29.2352z m-82.688-43.1104c-7.68 0-13.8752 6.2464-13.8752 13.8752s6.2464 13.8752 13.8752 13.8752h82.688c7.68 0 13.8752-6.2464 13.8752-13.8752s-6.2464-13.8752-13.8752-13.8752H71.5776z" fill="#8a8a8a" p-id="2260"></path><path d="M593.8176 195.2768m-81.3568 0a81.3568 81.3568 0 1 0 162.7136 0 81.3568 81.3568 0 1 0-162.7136 0Z" fill="#8a8a8a" p-id="2261"></path><path d="M593.8176 284.3648c-49.1008 0-89.0368-39.936-89.0368-89.0368s39.936-89.0368 89.0368-89.0368 89.0368 39.936 89.0368 89.0368c0 49.0496-39.936 89.0368-89.0368 89.0368z m0-162.7648c-40.6528 0-73.6768 33.0752-73.6768 73.6768 0 40.6528 33.0752 73.6768 73.6768 73.6768s73.6768-33.0752 73.6768-73.6768c0-40.6528-33.024-73.6768-73.6768-73.6768z" fill="#8a8a8a" p-id="2262"></path><path d="M866.7136 780.1856m-116.3264 0a116.3264 116.3264 0 1 0 232.6528 0 116.3264 116.3264 0 1 0-232.6528 0Z" fill="#8a8a8a" p-id="2263"></path><path d="M866.7136 904.192c-68.4032 0-124.0064-55.6544-124.0064-124.0064 0-68.4032 55.6544-124.0064 124.0064-124.0064s124.0064 55.6544 124.0064 124.0064-55.6544 124.0064-124.0064 124.0064z m0-232.704c-59.904 0-108.6464 48.7424-108.6464 108.6464s48.7424 108.6464 108.6464 108.6464 108.6464-48.7424 108.6464-108.6464-48.7424-108.6464-108.6464-108.6464z" fill="#8a8a8a" p-id="2264"></path><path d="M866.7136 780.1856m-116.3264 0a116.3264 116.3264 0 1 0 232.6528 0 116.3264 116.3264 0 1 0-232.6528 0Z" fill="#8a8a8a" p-id="2265"></path><path d="M866.7136 904.192c-68.4032 0-124.0064-55.6544-124.0064-124.0064 0-68.4032 55.6544-124.0064 124.0064-124.0064s124.0064 55.6544 124.0064 124.0064-55.6544 124.0064-124.0064 124.0064z m0-232.704c-59.904 0-108.6464 48.7424-108.6464 108.6464s48.7424 108.6464 108.6464 108.6464 108.6464-48.7424 108.6464-108.6464-48.7424-108.6464-108.6464-108.6464z" fill="#8a8a8a" p-id="2266"></path><path d="M866.7136 780.1856m-57.4464 0a57.4464 57.4464 0 1 0 114.8928 0 57.4464 57.4464 0 1 0-114.8928 0Z" fill="#8a8a8a" p-id="2267"></path><path d="M866.7136 845.312c-35.8912 0-65.1264-29.2352-65.1264-65.1264s29.2352-65.1264 65.1264-65.1264 65.1264 29.184 65.1264 65.1264-29.2352 65.1264-65.1264 65.1264z m0-114.944c-27.4432 0-49.7664 22.3232-49.7664 49.7664s22.3232 49.7664 49.7664 49.7664 49.7664-22.3232 49.7664-49.7664-22.3232-49.7664-49.7664-49.7664z" fill="#8a8a8a" p-id="2268"></path><path d="M713.6256 793.6c0-106.6496 86.4768-193.1264 193.1264-193.1264 10.7008 0 21.1456 0.9216 31.3344 2.56L809.472 329.5744s3.9424 124.5184 3.9424 208.8448c-179.4048 36.3008-188.8768 214.7328-188.8768 214.7328H369.6128v57.856h344.832c-0.512-5.7344-0.8192-11.52-0.8192-17.408z" fill="#8a8a8a" p-id="2269"></path><path d="M714.4448 818.688H369.6128c-4.2496 0-7.68-3.4304-7.68-7.68v-57.856c0-4.2496 3.4304-7.68 7.68-7.68h247.9616c4.2496-34.1504 31.4368-178.0224 188.16-213.248-0.2048-83.0464-3.8912-201.1648-3.8912-202.3936-0.1024-3.6352 2.3552-6.8608 5.888-7.7312 3.584-0.8704 7.168 0.9216 8.7552 4.1984l128.6144 273.4592c1.2288 2.56 0.9216 5.632-0.8192 7.8848-1.6896 2.2528-4.5568 3.3792-7.3728 2.9696a187.4944 187.4944 0 0 0-30.1056-2.4576c-102.2464 0-185.4464 83.2-185.4464 185.4464 0 5.3248 0.256 10.752 0.768 16.6912 0.2048 2.1504-0.512 4.2496-1.9968 5.888s-3.5328 2.5088-5.6832 2.5088z m-337.152-15.36h328.9088c-0.1536-3.328-0.256-6.5024-0.256-9.6768 0-110.7456 90.0608-200.8064 200.8064-200.8064 6.0928 0 12.288 0.3072 18.432 0.8704l-107.008-227.4304c1.1776 43.4688 2.8672 116.8384 2.8672 172.2368 0 3.6352-2.56 6.8096-6.144 7.5264-171.3152 34.6112-182.3744 200.5504-182.7328 207.616-0.2048 4.0448-3.584 7.2704-7.68 7.2704H377.2928v42.3936z" fill="#8a8a8a" p-id="2270"></path><path d="M840.1408 394.7008s58.2656-18.688 87.04 29.0304c28.7744 47.7184-9.1648 92.16-26.7776 99.0208-15.36-32.5632-60.2624-128.0512-60.2624-128.0512z" fill="#8a8a8a" p-id="2271"></path><path d="M900.352 530.432c-2.9184 0-5.632-1.6384-6.9632-4.4032l-60.2112-128.0512a7.8336 7.8336 0 0 1-0.1024-6.3488c0.8704-2.048 2.6112-3.584 4.7104-4.2496 0.6656-0.2048 64.4096-19.968 95.9488 32.3584 15.5136 25.7024 12.544 49.2544 7.3728 64.512-7.8848 23.0912-25.4464 40.7552-37.9904 45.6192-0.8704 0.3584-1.8432 0.5632-2.7648 0.5632z m-49.2032-130.3552l52.5824 111.8208c7.936-6.0416 17.8176-17.9712 22.8352-32.6144 6.0416-17.664 3.9936-35.0208-5.9904-51.6096-19.0976-31.6416-53.4016-30.2592-69.4272-27.5968z" fill="#8a8a8a" p-id="2272"></path><path d="M825.4464 363.4176s-5.12-43.9808-41.4208-43.9808h-30.4128v31.0272s42.8032 1.3312 55.8592 31.0272c10.8032-7.424 15.9744-18.0736 15.9744-18.0736z" fill="#8a8a8a" p-id="2273"></path><path d="M809.5232 389.2224c-0.7168 0-1.3824-0.1024-2.0992-0.3072-2.2016-0.6144-4.0448-2.2016-4.9664-4.3008-10.9056-24.8832-48.7424-26.4704-49.1008-26.4704-4.1472-0.1536-7.424-3.5328-7.424-7.68V319.488c0-4.2496 3.4304-7.68 7.68-7.68h30.4128c34.0992 0 47.0016 33.2288 49.0496 50.7392 0.1536 1.4336-0.1024 2.9184-0.7168 4.2496-0.256 0.512-6.144 12.4928-18.432 21.0944-1.3312 0.8704-2.8672 1.3312-4.4032 1.3312z m-48.2304-45.6704c12.288 1.6896 36.7104 7.2704 50.2272 26.1632 2.816-2.9696 4.7616-5.888 5.888-7.68-1.536-8.2432-8.448-34.8672-33.4336-34.8672h-22.7328v16.384z" fill="#8a8a8a" p-id="2274"></path><path d="M300.6976 790.4256m-105.8816 0a105.8816 105.8816 0 1 0 211.7632 0 105.8816 105.8816 0 1 0-211.7632 0Z" fill="#8a8a8a" p-id="2275"></path><path d="M300.6976 903.9872c-62.6176 0-113.5616-50.944-113.5616-113.5616s50.944-113.5616 113.5616-113.5616 113.5616 50.944 113.5616 113.5616-50.944 113.5616-113.5616 113.5616z m0-211.8144c-54.1696 0-98.2016 44.032-98.2016 98.2016s44.032 98.2016 98.2016 98.2016 98.2016-44.032 98.2016-98.2016c0-54.1184-44.032-98.2016-98.2016-98.2016z" fill="#8a8a8a" p-id="2276"></path><path d="M300.6976 790.4256m-52.2752 0a52.2752 52.2752 0 1 0 104.5504 0 52.2752 52.2752 0 1 0-104.5504 0Z" fill="#8a8a8a" p-id="2277"></path><path d="M300.6976 850.3808c-33.0752 0-59.9552-26.88-59.9552-59.9552s26.88-59.9552 59.9552-59.9552 59.9552 26.88 59.9552 59.9552-26.88 59.9552-59.9552 59.9552z m0-104.6016c-24.576 0-44.5952 20.0192-44.5952 44.5952s20.0192 44.5952 44.5952 44.5952 44.5952-20.0192 44.5952-44.5952-19.968-44.5952-44.5952-44.5952z" fill="#8a8a8a" p-id="2278"></path><path d="M485.9392 778.9568c0-102.2976-82.944-185.2416-185.2416-185.2416s-185.2416 82.944-185.2416 185.2416h370.4832z" fill="#8a8a8a" p-id="2279"></path><path d="M485.9392 786.6368H115.456c-4.2496 0-7.68-3.4304-7.68-7.68 0-106.3936 86.528-192.9216 192.9216-192.9216s192.9216 86.528 192.9216 192.9216c0 4.2496-3.4304 7.68-7.68 7.68z m-362.6496-15.36h354.816c-4.0448-94.3616-82.0736-169.8816-177.408-169.8816s-173.3632 75.52-177.408 169.8816z" fill="#8a8a8a" p-id="2280"></path><path d="M156.5184 534.1696h383.0272v65.9968H156.5184z" fill="#8a8a8a" p-id="2281"></path><path d="M539.5456 607.8976H156.5184c-4.2496 0-7.68-3.4304-7.68-7.68v-65.9968c0-4.2496 3.4304-7.68 7.68-7.68h383.0272c4.2496 0 7.68 3.4304 7.68 7.68v65.9968c0 4.1984-3.4304 7.68-7.68 7.68z m-375.3472-15.36h367.6672v-50.6368H164.1984v50.6368z" fill="#8a8a8a" p-id="2282"></path><path d="M246.272 577.6384H77.6192a34.816 34.816 0 0 1-34.816-34.816V374.2208a34.816 34.816 0 0 1 34.816-34.816H246.272a34.816 34.816 0 0 1 34.816 34.816v168.6528c-0.0512 19.2-15.616 34.7648-34.816 34.7648z" fill="#8a8a8a" p-id="2283"></path><path d="M246.272 585.3184H77.6192c-23.4496 0-42.496-19.0464-42.496-42.496V374.2208c0-23.4496 19.0464-42.496 42.496-42.496H246.272c23.4496 0 42.496 19.0464 42.496 42.496v168.6528c-0.0512 23.3984-19.0976 42.4448-42.496 42.4448zM77.6192 347.0848a27.1872 27.1872 0 0 0-27.136 27.136v168.6528c0 14.9504 12.1856 27.136 27.136 27.136H246.272c14.9504 0 27.136-12.1856 27.136-27.136V374.2208c0-14.9504-12.1856-27.136-27.136-27.136H77.6192z" fill="#8a8a8a" p-id="2284"></path><path d="M753.6128 381.3376V310.9888h-209.8176s4.4032-20.1216-8.8064-34.304-27.9552-3.4304-32.8192 2.4576c-3.9424 4.7104-103.168 103.68-141.9776 142.3872-15.104 15.0528-26.1632 33.9968-30.5152 54.9376-5.5808 26.9824-0.6144 57.7536 51.4048 57.7536h100.9664s24.4224-2.6112 34.4064 74.496c10.0352 77.1072 5.4272 144.4352 5.4272 144.4352h93.4912l-3.9424-196.096s0.6656-26.7776-34.6624-39.2192c-35.2768-12.4416-133.9904-45.1072-133.9904-45.1072l87.6032-89.5488 223.232-1.8432z" fill="#8a8a8a" p-id="2285"></path><path d="M615.3728 760.832h-93.4912a7.70048 7.70048 0 0 1-7.68-8.2432c0.0512-0.6656 4.4032-67.5328-5.376-142.9504-7.7824-60.0576-24.0128-67.072-26.368-67.7888h-101.376c-23.8592 0-41.0624-6.2464-51.0464-18.5344-9.472-11.6736-12.1344-27.9552-7.8848-48.4864 4.5056-21.7088 15.7696-42.0864 32.6144-58.8288 84.1216-83.8656 138.3936-138.1888 141.5168-141.8752 4.5568-5.4272 13.4656-11.9296 23.552-12.1856 5.3248-0.1024 13.2608 1.3824 20.7872 9.472 9.728 10.4448 11.6224 23.296 11.5712 31.8464h201.4208c4.2496 0 7.68 3.4304 7.68 7.68v70.4c0 4.1984-3.3792 7.6288-7.6288 7.68l-220.0064 1.8432-76.7488 78.4896c27.2384 9.0624 94.72 31.5392 122.4704 41.2672 40.0896 14.08 39.7824 45.312 39.7824 46.6432l3.9424 195.7376c0.0512 2.048-0.768 4.0448-2.2016 5.5296s-3.4304 2.304-5.5296 2.304z m-85.4016-15.36h77.568l-3.7888-188.2624c0-1.1264-0.3072-21.8624-29.4912-32.1024-34.816-12.2368-132.864-44.7488-133.8368-45.056-2.5088-0.8192-4.4032-2.9184-5.0688-5.4784-0.6144-2.56 0.1024-5.2736 1.9968-7.168l87.6032-89.5488c1.4336-1.4848 3.3792-2.304 5.4272-2.304L745.984 373.76V318.6688h-202.1376c-2.304 0-4.5056-1.0752-5.9904-2.8672s-1.9968-4.1984-1.536-6.4512c0-0.1024 3.2768-16.4352-6.9632-27.4432-2.9696-3.1744-5.888-4.7104-9.1136-4.5568-4.9664 0.1536-10.0352 4.096-12.1856 6.7072-3.9936 4.7616-90.9824 91.5968-142.4896 142.8992-14.6944 14.6432-24.4736 32.256-28.416 51.0464-3.2768 15.7696-1.6896 27.7504 4.7104 35.6352 6.9632 8.5504 20.1216 12.9024 39.1168 12.9024h100.7104c6.5024-0.4096 32.2048 3.072 42.3424 81.2032 8.0384 61.3888 6.8096 117.2992 5.9392 137.728z m223.6416-364.1344z" fill="#8a8a8a" p-id="2286"></path></svg>