<?xml version="1.0" standalone="no"?><!DOCTYPE svg PUBLIC "-//W3C//DTD SVG 1.1//EN" "http://www.w3.org/Graphics/SVG/1.1/DTD/svg11.dtd"><svg t="1623121921886" class="icon" viewBox="0 0 1024 1024" version="1.1" xmlns="http://www.w3.org/2000/svg" p-id="5798" xmlns:xlink="http://www.w3.org/1999/xlink" width="200" height="200"><defs><style type="text/css"></style></defs><path d="M58.915831 640.777969c0 177.848571 155.798369 241.323231 211.926714 258.417561l0 63.800072 472.758254 0 0.004093 0 0-63.649646c56.428174-16.851806 211.927737-80.347956 211.927737-268.225951L955.532629 486.666008 58.915831 486.666008 58.915831 640.777969zM913.503397 640.773875c0 186.342012-190.892655 213.295897-198.674898 214.750015l-11.469216 9.404184 0 56.037271L311.088154 920.965345l0-56.037271-11.126408-9.337669c-7.850805-1.571798-199.016683-40.388872-199.016683-214.81653l0-28.021194 812.559357 0 0 14.010085L913.50442 640.773875zM100.94404 584.733535l0-56.037271 812.559357 0 0 56.037271L100.94404 584.733535zM437.174827 192.46343l504.34874 0 0 42.030255L437.174827 234.493685 437.174827 192.46343 437.174827 192.46343zM72.924893 192.46343l42.029232 0 0 42.030255L72.924893 234.493685 72.924893 192.46343 72.924893 192.46343zM72.924893 290.530956l42.029232 0 0 42.030255-39.73805-0.140193L72.924893 290.530956 72.924893 290.530956zM437.174827 290.530956l504.34874 0 0 42.030255L437.174827 332.561211 437.174827 290.530956 437.174827 290.530956zM133.278469 460.483696c51.325969-11.116175 63.076594-49.13507 65.732074-71.885214L199.010543 192.46343c0-31.122835 40.301891-34.218336 44.839231-34.274618l-0.008186-49.782823c-29.424146 0-87.120197 27.088962-87.120197 89.712231l0 182.140317c-0.953721 4.821819-6.631024 25.688055-33.618679 31.527041L133.278469 460.483696 133.278469 460.483696zM231.088122 460.483696c51.328016-11.116175 63.332421-49.13507 65.989947-71.885214L297.078069 192.46343c0-31.122835 40.048111-34.218336 44.585451-34.274618l-0.008186-49.782823c-29.43131 0-87.122243 27.088962-87.122243 89.712231l0 182.140317c-0.956791 4.821819-6.628978 25.688055-33.617655 31.527041L231.088122 460.483696 231.088122 460.483696zM328.900845 460.483696c51.330062-11.116175 63.585177-49.13507 66.24475-71.885214L395.145595 192.46343c0-31.122835 39.790238-34.218336 44.326555-34.274618l-0.00307-49.782823c-29.43131 0-87.126336 27.088962-87.126336 89.712231l0 182.140317c-0.953721 4.821819-6.631024 25.688055-33.614585 31.527041L328.900845 460.483696 328.900845 460.483696zM328.900845 460.483696" p-id="5799" fill="#1296db"></path></svg>