<?xml version="1.0" standalone="no"?><!DOCTYPE svg PUBLIC "-//W3C//DTD SVG 1.1//EN" "http://www.w3.org/Graphics/SVG/1.1/DTD/svg11.dtd"><svg t="1624079046301" class="icon" viewBox="0 0 1024 1024" version="1.1" xmlns="http://www.w3.org/2000/svg" p-id="1866" xmlns:xlink="http://www.w3.org/1999/xlink" width="200" height="200"><defs><style type="text/css"></style></defs><path d="M583.493818 277.147152L557.490424 186.181818S494.886788 242.501818 169.487515 248.769939l3.971879 75.124364c386.187636 7.819636 410.034424-46.747152 410.034424-46.747151zM352.100848 443.888485s65.086061 0.449939 75.71394 0c-7.462788-39.563636-9.200485-56.785455-15.142788-106.108121l-91.229091 14.599757c12.567273 30.301091 24.638061 52.860121 30.657939 91.508364z m238.08 235.147636l-153.708606-81.144242h150.962425v-89.212121H429.614545v-41.161697h-102.927515v41.161697H155.151515v89.212121h130.373818c-38.725818 52.425697-58.33697 74.519273-130.296242 118.861576l52.720485 77.901575c65.101576-48.019394 90.375758-78.103273 118.737454-114.424242v157.804606h102.927515V680.215273l112.57794 65.737697 47.988363-66.932364z m-145.95103-230.570666l53.682424 28.22206c50.439758-50.408727 92.268606-130.094545 92.268606-130.094545l-83.688727-31.263031s-32.768 90.65503-62.262303 133.12zM250.585212 486.865455c8.533333-2.203152 62.681212-25.6 71.214546-27.834182-22.807273-25.382788-39.749818-58.616242-60.928-107.101091-28.144485 6.981818-76.862061 21.488485-76.862061 21.488485s63.115636 106.852848 66.56 113.446788z" fill="#8a8a8a" p-id="1867"></path><path d="M803.219394 581.647515s-71.664485 128.186182-285.509818 186.895515l31.247515 69.476849c212.712727-51.882667 301.505939-164.708848 319.798303-182.737455l-65.536-73.634909z" fill="#8a8a8a" p-id="1868"></path><path d="M629.713455 472.731152C713.774545 431.212606 827.42303 289.466182 827.42303 289.466182l-65.691151-61.88994s-95.045818 140.101818-185.204364 187.159273l53.18594 57.995637z" fill="#8a8a8a" p-id="1869"></path><path d="M563.820606 577.830788l58.073212 65.675636c99.498667-33.590303 231.889455-166.136242 231.889455-166.136242l-66.513455-67.894303s-64.915394 100.476121-223.449212 168.354909z" fill="#8a8a8a" p-id="1870"></path></svg>