<?xml version="1.0" standalone="no"?><!DOCTYPE svg PUBLIC "-//W3C//DTD SVG 1.1//EN" "http://www.w3.org/Graphics/SVG/1.1/DTD/svg11.dtd"><svg t="1624079361847" class="icon" viewBox="0 0 1024 1024" version="1.1" xmlns="http://www.w3.org/2000/svg" p-id="7107" xmlns:xlink="http://www.w3.org/1999/xlink" width="200" height="200"><defs><style type="text/css"></style></defs><path d="M462.4 908.8c-218.8 0-396.8-178-396.8-396.8s178-396.8 396.8-396.8 396.8 178 396.8 396.8c0 120.2-53.6 232.5-147 308.3-6.1 5-15.1 4-20.1-2.1-5-6.1-4-15.1 2.1-20.1C781 727.8 830.7 623.5 830.7 512c0-203.1-165.2-368.3-368.3-368.3S94.1 308.9 94.1 512c0 203.1 165.2 368.3 368.3 368.3 7.9 0 14.3 6.4 14.3 14.3s-6.4 14.2-14.3 14.2z" fill="#1296db" p-id="7108"></path><path d="M944.1 908.8H462.4c-7.9 0-14.3-6.4-14.3-14.3s6.4-14.3 14.3-14.3h481.7c7.9 0 14.3 6.4 14.3 14.3s-6.4 14.3-14.3 14.3zM362.3 483.4c-39.3 0-71.3-32-71.3-71.3s32-71.3 71.3-71.3 71.3 32 71.3 71.3-31.9 71.3-71.3 71.3z m0-114.1c-23.6 0-42.8 19.2-42.8 42.8 0 23.6 19.2 42.8 42.8 42.8 23.6 0 42.8-19.2 42.8-42.8 0-23.6-19.2-42.8-42.8-42.8zM562.5 483.4c-39.3 0-71.3-32-71.3-71.3s32-71.3 71.3-71.3 71.3 32 71.3 71.3-31.9 71.3-71.3 71.3z m0-114.1c-23.6 0-42.8 19.2-42.8 42.8 0 23.6 19.2 42.8 42.8 42.8s42.8-19.2 42.8-42.8c0.1-23.6-19.2-42.8-42.8-42.8zM362.3 683.2c-39.3 0-71.3-32-71.3-71.3s32-71.3 71.3-71.3 71.3 32 71.3 71.3c0.1 39.3-31.9 71.3-71.3 71.3z m0-114.1c-23.6 0-42.8 19.2-42.8 42.8 0 23.6 19.2 42.8 42.8 42.8 23.6 0 42.8-19.2 42.8-42.8 0-23.6-19.2-42.8-42.8-42.8zM562.5 683.2c-39.3 0-71.3-32-71.3-71.3s32-71.3 71.3-71.3 71.3 32 71.3 71.3c0.1 39.3-31.9 71.3-71.3 71.3z m0-114.1c-23.6 0-42.8 19.2-42.8 42.8 0 23.6 19.2 42.8 42.8 42.8s42.8-19.2 42.8-42.8c0.1-23.6-19.2-42.8-42.8-42.8z" fill="#1296db" p-id="7109"></path></svg>