<?xml version="1.0" standalone="no"?><!DOCTYPE svg PUBLIC "-//W3C//DTD SVG 1.1//EN" "http://www.w3.org/Graphics/SVG/1.1/DTD/svg11.dtd"><svg t="1625290365276" class="icon" viewBox="0 0 1024 1024" version="1.1" xmlns="http://www.w3.org/2000/svg" p-id="3637" xmlns:xlink="http://www.w3.org/1999/xlink" width="200" height="200"><defs><style type="text/css"></style></defs><path d="M788.591991 859.724563 235.190045 859.724563c-48.949852 0-88.789209-39.839357-88.789209-88.789209L146.400836 217.534432c0-48.949852 39.839357-88.789209 88.789209-88.789209l553.401945 0c48.948829 0 88.789209 39.839357 88.789209 88.789209l0 553.400922C877.380176 819.885206 837.540819 859.724563 788.591991 859.724563zM235.190045 163.554006c-29.77821 0-53.980425 24.202215-53.980425 53.980425l0 553.400922c0 29.77821 24.202215 53.980425 53.980425 53.980425l553.401945 0c29.777187 0 53.980425-24.202215 53.980425-53.980425L842.572416 217.534432c0-29.77821-24.203238-53.980425-53.980425-53.980425L235.190045 163.554006z" p-id="3638" fill="#1296db"></path></svg>