<?xml version="1.0" standalone="no"?><!DOCTYPE svg PUBLIC "-//W3C//DTD SVG 1.1//EN" "http://www.w3.org/Graphics/SVG/1.1/DTD/svg11.dtd"><svg t="1625237155738" class="icon" viewBox="0 0 1024 1024" version="1.1" xmlns="http://www.w3.org/2000/svg" p-id="10185" xmlns:xlink="http://www.w3.org/1999/xlink" width="200" height="200"><defs><style type="text/css"></style></defs><path d="M13.895818 1002.153863c-1.501698 14.439801 12.483507 24.961906 25.942607 19.149209 16.03344-6.977279 166.652773-72.75065 236.778004-103.351586L42.377011 745.394075C33.596672 823.227004 15.177881 989.430289 13.895818 1002.153863z" p-id="10186" fill="#8a8a8a"></path><path d="M653.578495 778.068786c0 19.772363 16.069195 35.805803 35.861989 35.805803l286.655846 0c19.787686 0 35.856881-16.03344 35.856881-35.805803 0-19.700853-16.069195-35.739402-35.856881-35.739402l-286.655846 0C669.64769 742.329384 653.578495 758.367932 653.578495 778.068786z" p-id="10187" fill="#8a8a8a"></path><path d="M803.554243 240.384124c16.835368-22.82173 11.947186-55.011198-10.879652-71.83635L606.499738 31.41308c-22.862593-16.825152-55.041845-11.931863-71.866997 10.894975l-15.231513 20.681554 268.906179 198.070961L803.554243 240.384124z" p-id="10188" fill="#8a8a8a"></path><path d="M498.060765 91.935614 65.173202 679.18654l268.901071 198.137362 432.897779-587.307113L498.060765 91.935614zM356.31882 742.891244c-10.067509 13.944343-29.49254 17.126513-43.416452 7.094759-13.923911-10.04197-17.070327-29.49254-7.007926-43.452206l291.395901-404.038608c10.067509-13.949451 29.49254-17.131621 43.411344-7.099867 13.918804 10.031754 17.075435 29.49254 7.002818 43.447099L356.31882 742.891244z" p-id="10189" fill="#8a8a8a"></path><path d="M980.580994 952.403717 407.652389 952.403717c-19.757039 0-35.795588 15.977254-35.795588 35.800695 0 19.762147 16.038548 35.795588 35.795588 35.795588l572.928605 0c19.80301 0 35.83645-16.03344 35.83645-35.795588C1016.417444 968.380971 1000.384004 952.403717 980.580994 952.403717z" p-id="10190" fill="#8a8a8a"></path></svg>