<?xml version="1.0" standalone="no"?><!DOCTYPE svg PUBLIC "-//W3C//DTD SVG 1.1//EN" "http://www.w3.org/Graphics/SVG/1.1/DTD/svg11.dtd"><svg t="1624079597758" class="icon" viewBox="0 0 1024 1024" version="1.1" xmlns="http://www.w3.org/2000/svg" p-id="16861" xmlns:xlink="http://www.w3.org/1999/xlink" width="200" height="200"><defs><style type="text/css"></style></defs><path d="M888.32 122.88c-30.72-33.28-87.04-25.6-120.32 7.68l-163.84 163.84-302.08-112.64c-28.16-7.68-58.88-17.92-94.72 17.92-17.92 17.92-56.32 56.32 0 112.64l207.36 168.96-133.12 135.68-128-30.72c-17.92-5.12-30.72 0-40.96 10.24-5.12 5.12-40.96 33.28-15.36 56.32L243.2 768l115.2 145.92c17.92 17.92 33.28 7.68 56.32-15.36 15.36-15.36 10.24-20.48 7.68-43.52l-28.16-125.44 133.12-135.68 168.96 207.36c56.32 56.32 94.72 17.92 112.64 0 35.84-35.84 25.6-66.56 17.92-94.72L716.8 407.04l163.84-163.84c30.72-33.28 40.96-87.04 7.68-120.32z m-33.28 87.04l-192 192L778.24 716.8c5.12 17.92 2.56 40.96-5.12 48.64-20.48 20.48-35.84 10.24-43.52 2.56l-184.32-248.32-204.8 204.8 35.84 135.68c-15.36-15.36-99.84-128-102.4-130.56-2.56-2.56-112.64-84.48-125.44-97.28l130.56 35.84 207.36-204.8L243.2 281.6c-7.68-5.12-15.36-25.6 2.56-43.52 7.68-7.68 30.72-10.24 48.64-5.12l314.88 115.2 194.56-189.44c12.8-12.8 40.96-12.8 51.2 0 10.24 10.24 12.8 35.84 0 51.2z" p-id="16862" fill="#1296db"></path></svg>