<?xml version="1.0" standalone="no"?><!DOCTYPE svg PUBLIC "-//W3C//DTD SVG 1.1//EN" "http://www.w3.org/Graphics/SVG/1.1/DTD/svg11.dtd"><svg t="1624079377761" class="icon" viewBox="0 0 1024 1024" version="1.1" xmlns="http://www.w3.org/2000/svg" p-id="8281" xmlns:xlink="http://www.w3.org/1999/xlink" width="200" height="200"><defs><style type="text/css"></style></defs><path d="M822.71 801.83c-55.89 0.01-118.07-37.08-169.98-105.38-31.51-41.44-77.3-65.22-125.65-65.22h-30.16c-48.35 0-94.15 23.77-125.65 65.22-74.38 97.87-169.89 131.63-237.67 84.05-83.45-58.61-93.16-221.8-22.09-371.51 45.43-95.71 113.92-163.75 183.22-182.01 38.05-10.02 73.86-4.29 103.57 16.57 31.8 22.57 63.31 33.83 94.16 33.83h39.08c30.86 0 62.36-11.26 93.63-33.47 30.23-21.23 66.05-26.95 104.1-16.93 69.3 18.27 137.78 86.3 183.21 182.01v-0.01c71.08 149.72 61.38 312.91-22.09 371.51-20.48 14.39-43.5 21.34-67.68 21.34z m-325.79-223.3h30.16c64.96 0 126.05 31.36 167.6 86.03 56.01 73.7 122.48 102.94 165.42 72.8 60.95-42.8 63.14-182.84 4.77-305.79v-0.01c-38.27-80.63-95.38-139.5-149.04-153.65-22.85-6.04-43-3.1-59.85 8.74-40.67 28.87-82.43 43.41-124.44 43.41h-39.08c-42 0-83.78-14.54-124.15-43.2-17.14-12.04-37.28-14.96-60.15-8.94-53.66 14.14-110.77 73.01-149.05 153.65-58.36 122.96-56.17 262.99 4.77 305.79 42.96 30.16 109.42 0.89 165.43-72.8 41.56-54.67 102.65-86.03 167.61-86.03z" fill="#8a8a8a" p-id="8282"></path><path d="M783.31 567.42c-36.32 0-65.87-29.55-65.87-65.87s29.55-65.87 65.87-65.87c36.32 0 65.87 29.55 65.87 65.87s-29.55 65.87-65.87 65.87z m0-79.04c-7.26 0-13.17 5.91-13.17 13.17s5.91 13.17 13.17 13.17c7.27 0 13.18-5.91 13.18-13.17s-5.91-13.17-13.18-13.17zM653.71 523.07c-36.32 0-65.87-29.55-65.87-65.87s29.55-65.87 65.87-65.87c36.32 0 65.87 29.55 65.87 65.87s-29.56 65.87-65.87 65.87z m0-79.04c-7.26 0-13.17 5.91-13.17 13.17s5.91 13.17 13.17 13.17 13.17-5.91 13.17-13.17-5.91-13.17-13.17-13.17zM319.41 562.59c-14.55 0-26.35-11.8-26.35-26.35V378.16c0-14.55 11.8-26.35 26.35-26.35s26.35 11.8 26.35 26.35v158.08c0 14.56-11.8 26.35-26.35 26.35z" fill="#8a8a8a" p-id="8283"></path><path d="M398.45 483.55H240.37c-14.55 0-26.35-11.8-26.35-26.35s11.8-26.35 26.35-26.35h158.08c14.55 0 26.35 11.8 26.35 26.35s-11.8 26.35-26.35 26.35z" fill="#8a8a8a" p-id="8284"></path></svg>