<?xml version="1.0" standalone="no"?><!DOCTYPE svg PUBLIC "-//W3C//DTD SVG 1.1//EN" "http://www.w3.org/Graphics/SVG/1.1/DTD/svg11.dtd"><svg t="1624079720247" class="icon" viewBox="0 0 1024 1024" version="1.1" xmlns="http://www.w3.org/2000/svg" p-id="18017" xmlns:xlink="http://www.w3.org/1999/xlink" width="200" height="200"><defs><style type="text/css"></style></defs><path d="M231 665.1a283.7 29.7 0 1 0 567.4 0 283.7 29.7 0 1 0-567.4 0Z" fill="#8a8a8a" p-id="18018"></path><path d="M397.2 878.7a114.5 12 0 1 0 229 0 114.5 12 0 1 0-229 0Z" fill="#8a8a8a" p-id="18019"></path><path d="M511.7 869.4c-12.7 0-23-10.3-23-23V693.3c0-12.7 10.3-23 23-23s23 10.3 23 23v153.1c0 12.7-10.3 23-23 23zM727.2 421.1h-12.9c-0.6 0-1.2-0.2-1.7-0.5l-21.3-14.2c-5.8-3.9-18-3.9-23.8 0l-21.3 14.2c-0.5 0.3-1.1 0.5-1.7 0.5h-13.2c-0.6 0-1.2-0.2-1.7-0.5l-21.3-14.2c-5.8-3.9-18-3.9-23.8 0l-14.8 9.9c-8.6 5.7-19.6 5.7-28.2 0l-13.1-8.8c-7.4-5-19.6-5-27.1 0l-19.6 13.1c-0.5 0.3-1.1 0.5-1.7 0.5h-13c-0.6 0-1.2-0.2-1.7-0.5L444 406.4c-5.8-3.9-18-3.9-23.8 0l-15.6 10.4c-4.2 2.8-9 4.3-14.1 4.3h-0.6c-5 0-9.9-1.5-14.1-4.2l-14-9.4c-7.4-5-19.6-5-27.1 0l-14 9.3c-4.2 2.8-9 4.3-14.1 4.3-5 0-9.9-1.5-14.1-4.3l-15.6-10.5c-5.8-3.9-18-3.9-23.8 0l-15.6 10.4c-4.2 2.8-9 4.3-14.1 4.3h-0.5c-26.9 0-49.5-14.7-56.1-36.7-5.8-19.1 1.9-38.6 20-50.7L474.2 142c21.3-14.3 53.5-14.3 74.9 0l286.8 191.7c17.5 11.7 25.3 30.5 20.4 49.1-5.5 20.9-26 36.2-51.1 38.1-5.6 0.4-11.3-1.1-16-4.2l-13.8-9.2c-7.4-5-19.6-5-27.1 0l-19.6 13.1c-0.3 0.4-0.9 0.5-1.5 0.5z m-514.5-48.9c0.9 0.7 2.4 1.5 4.5 2.1 0.8 0.2 1.7 0.1 2.5-0.4l8.6-5.7c21.3-14.3 53.5-14.3 74.9 0l2.5 1.7c1 0.7 2.3 0.7 3.3 0l0.8-0.6c21.5-14.4 56.7-14.4 78.2 0l1.2 0.8c1 0.7 2.3 0.7 3.3 0l1.2-0.8c21.5-14.4 56.7-14.4 78.2 0l0.6 0.4c1 0.7 2.3 0.7 3.3 0l2.2-1.5c21.3-14.3 53.5-14.3 74.9 0l1.7 1.1c1 0.7 2.3 0.7 3.3 0 21.5-14.4 56.7-14.4 78.2 0l0.6 0.4c1 0.7 2.3 0.7 3.3 0l2.3-1.5c21.3-14.3 53.5-14.3 74.9 0l2.1 1.4c1 0.7 2.3 0.7 3.3 0l0.5-0.3c21.5-14.4 56.7-14.4 78.2 0l5.3 3.6c0.9 0.6 2.1 0.7 3.1 0.1 0.5-0.3 0.8-0.5 1.2-0.7-0.1-0.1-0.2-0.1-0.3-0.2L523.5 180.3c-5.8-3.9-18-3.9-23.8 0L213 372c-0.1 0.1-0.2 0.1-0.3 0.2z" fill="#8a8a8a" p-id="18020"></path><path d="M511.7 730.5c-12.7 0-23-10.3-23-23V409.4c0-12.7 10.3-23 23-23s23 10.3 23 23v298.1c0 12.7-10.3 23-23 23zM836.6 768.5c-1.3 0.2-2.6-0.6-2.8-1.7-5.7-33.5-8.8-73.6-8.8-116.1 0-50.2 4.3-97.5 12.1-133.2 4-18.2 8.7-32.8 14.1-43.4 8.4-16.2 19.8-24.9 34.1-25.9 1.4-0.1 2.6 0.8 2.6 2v33.3c0 1.3 1.4 2.2 3 2h0.2c2-0.3 3.5 1.3 2.7 2.8-3.4 6.6-8.9 20.5-13.9 48.1-5.7 31.9-8.9 72.5-8.9 114.3 0 40.2 2.9 79.4 8.3 110.8 0.2 1.1-0.7 2.1-2.1 2.3l-40.6 4.7z" fill="#8a8a8a" p-id="18021"></path><path d="M835.3 773.3c-1.3-2.2-10.7-9.8-36.1-15.1-24.8-5.2-56.4-6.7-89-4.1-23.2 1.9-45.9 5.7-65.7 11.1-11.5 3.1-23.5-3.1-27.6-14.3-4.6-12.7 2.6-26.6 15.6-30.1 22.6-6.1 47.7-10.4 74.1-12.5 55.3-4.4 125.7 0.9 157.6 28.9 11.8 10.3 15.5 21.4 16.5 29.7 0.2 1.4-0.9 2.7-2.3 2.7l-43.4 2.1c-0.1 0.9 0.2 1.5 0.3 1.6z" fill="#8a8a8a" p-id="18022"></path><path d="M627.7 894.1c-13-1.6-22.1-13.7-19.9-26.7 6.8-39.8 17.9-74.5 32.6-101.5 13.7-25.2 28.5-40 42.5-48.4 15.3-9.1 34.6 2.1 34.6 19.9 0 7.1-5 16-11.1 19.7-20 12-42.4 54.6-53.3 118.2-2.1 11.9-13.3 20.3-25.4 18.8zM824 874.8c-10.9-63.5-33.3-106-53.3-118-6.1-3.7-11.1-12.5-11.1-19.7 0-17.8 19.4-29 34.6-19.9 14 8.4 28.8 23.1 42.5 48.3 14.7 27 25.8 61.7 32.6 101.4 2.2 12.9-6.9 25.1-19.9 26.7-12.2 1.6-23.4-6.7-25.4-18.8zM188.7 768.5l-40.3-4.7c-1.4-0.2-2.4-1.3-2.2-2.4 5.3-31.3 8.3-70.5 8.3-110.6 0-41.8-3.2-82.4-8.9-114.3-5-27.7-10.5-41.6-13.9-48.1-0.8-1.5 0.8-3.1 2.7-2.7 1.6 0.3 3.2-0.8 3.2-2.1v-33c0-1.2 1.3-2.3 2.8-2.2 14.2 1 25.6 9.7 33.9 25.9 5.4 10.5 10.2 25.1 14.1 43.4 7.8 35.8 12.1 83.1 12.1 133.2 0 42.5-3 82.5-8.7 116-0.3 0.9-1.6 1.8-3.1 1.6z" fill="#8a8a8a" p-id="18023"></path><path d="M190.2 773.3c0.1-0.2 0.4-0.8 0.4-1.6l-43.2-2.1c-1.5-0.1-2.7-1.4-2.5-2.9 1-8.2 4.8-19.2 16.5-29.5 31.9-28.1 102.3-33.3 157.6-28.9 26.3 2.1 51.5 6.4 74.1 12.5 13 3.5 20.2 17.5 15.6 30.1-4.1 11.2-16.1 17.4-27.6 14.3-19.8-5.4-42.5-9.2-65.7-11.1-32.6-2.6-64.2-1.2-89 4.1-25.5 5.4-34.9 12.9-36.2 15.1z" fill="#8a8a8a" p-id="18024"></path><path d="M372.4 875.2C361.5 811.6 339.1 769 319.1 757c-6.9-4.1-11.1-11.6-11.1-19.7 0-17.8 19.4-29 34.6-19.8 14 8.4 28.8 23.2 42.5 48.4 14.7 27 25.8 61.8 32.6 101.5 2.2 12.9-6.9 25.1-19.9 26.7-12.1 1.5-23.3-6.9-25.4-18.9zM176.1 893.8c-13-1.6-22.1-13.7-19.9-26.7 6.8-39.7 17.9-74.4 32.6-101.4 13.7-25.2 28.5-40 42.5-48.3 15.3-9.1 34.6 2.1 34.6 19.9 0 7.1-5 16-11.1 19.7-20 12-42.4 54.5-53.3 118-2 11.9-13.2 20.2-25.4 18.8zM283 607.1l-62.9-71.9c-3.4-3.9-0.6-9.9 4.5-9.9h125.8c5.1 0 7.9 6 4.5 9.9L292 607.1c-2.4 2.7-6.6 2.7-9 0z m-18.8-51.9l18.8 21.5c2.4 2.7 6.6 2.7 9 0l18.8-21.5c3.4-3.9 0.6-9.9-4.5-9.9h-37.7c-5.1 0-7.8 6.1-4.4 9.9z" fill="#8a8a8a" p-id="18025"></path><path d="M277.3 596.7h20v51.7h-20z" fill="#8a8a8a" p-id="18026"></path><path d="M306.6 659.8H268c-5.5 0-10-4.5-10-10s4.5-10 10-10h38.6c5.5 0 10 4.5 10 10s-4.5 10-10 10zM357.7 570.3c-1.4 0-2.8-0.1-4.2-0.2-6.7-0.7-10.8-7.8-8.1-14 1.7-3.9 5.7-6.4 10-6 0.8 0.1 1.5 0.1 2.3 0.1 12.1 0 21.9-9.9 21.9-22s-9.8-22-21.9-22c-6.8 0-13.1 3.2-17.2 8.3-2.6 3.3-7.2 4.5-11.2 3h-0.1c-6.4-2.4-8.5-10.3-4.2-15.6 7.8-9.7 19.8-15.6 32.6-15.6 23.1 0 41.9 18.8 41.9 42 0.1 23.2-18.7 42-41.8 42zM293.6 496.2l0.2-0.3-42.5-39.1c-4.7-4.4-12.3-3.2-15.5 2.5l-1.6 2.9c-2.3 4-1.5 9.1 1.9 12.3l34.7 31.9c2.1 1.9 3.2 4.6 3.2 7.4v40.1c0 5.5 4.5 10 10 10s10-4.5 10-10v-57.4h-0.4z" fill="#8a8a8a" p-id="18027"></path><path d="M727.7 607.1l-62.9-71.9c-3.4-3.9-0.6-9.9 4.5-9.9h125.8c5.1 0 7.9 6 4.5 9.9l-62.9 71.9c-2.4 2.7-6.6 2.7-9 0z m23.3-61.8h-37.7c-5.1 0-7.9 6-4.5 9.9l18.8 21.5c2.4 2.7 6.6 2.7 9 0l18.8-21.5c3.5-3.8 0.8-9.9-4.4-9.9z" fill="#8a8a8a" p-id="18028"></path><path d="M722.4 596.7h20v51.7h-20z" fill="#8a8a8a" p-id="18029"></path><path d="M713.1 659.8h38.6c5.5 0 10-4.5 10-10s-4.5-10-10-10h-38.6c-5.5 0-10 4.5-10 10s4.5 10 10 10zM662 570.3c1.4 0 2.8-0.1 4.2-0.2 6.7-0.7 10.8-7.8 8.1-14-1.7-3.9-5.7-6.4-10-6-0.8 0.1-1.5 0.1-2.3 0.1-12.1 0-21.9-9.9-21.9-22s9.8-22 21.9-22c6.8 0 13.1 3.2 17.2 8.3 2.6 3.3 7.2 4.5 11.2 3h0.1c6.4-2.4 8.5-10.3 4.2-15.6-7.8-9.7-19.8-15.6-32.6-15.6-23.1 0-41.9 18.8-41.9 42-0.1 23.2 18.7 42 41.8 42zM726.1 496.2l-0.2-0.3 42.5-39.1c4.7-4.4 12.3-3.2 15.5 2.5l1.6 2.9c2.3 4 1.5 9.1-1.9 12.3l-34.7 31.9c-2.1 1.9-3.2 4.6-3.2 7.4v40.1c0 5.5-4.5 10-10 10s-10-4.5-10-10v-57.4h0.4z" fill="#8a8a8a" p-id="18030"></path></svg>