<?xml version="1.0" standalone="no"?><!DOCTYPE svg PUBLIC "-//W3C//DTD SVG 1.1//EN" "http://www.w3.org/Graphics/SVG/1.1/DTD/svg11.dtd"><svg t="1624079327336" class="icon" viewBox="0 0 1024 1024" version="1.1" xmlns="http://www.w3.org/2000/svg" p-id="6033" xmlns:xlink="http://www.w3.org/1999/xlink" width="200" height="200"><defs><style type="text/css"></style></defs><path d="M146 538.6c-0.9-10.4-1.3-20.7-1.3-30.8 0-15 0.9-30.1 2.8-44.9l29.8 3.7c-1.7 13.6-2.5 27.4-2.5 41.2 0 9.2 0.4 18.8 1.2 28.3l-30 2.5z" p-id="6034" fill="#1296db"></path><path d="M146 538.6c-0.9-10.4-1.3-20.7-1.3-30.8 0-15 0.9-30.1 2.8-44.9l2.4-19.1 18 7c27.3 10.6 57 20.1 88.3 28.2l-7.5 29c-25.5-6.6-50-14.1-73.1-22.3-0.5 7.4-0.7 14.8-0.7 22.2 0 9.2 0.4 18.8 1.2 28.3l-30.1 2.4zM869 516.3l-30-0.7c0.1-2.9 0.1-5.4 0.1-7.8v-5.2c-9.2 2.6-18.5 5.1-27.9 7.4l-7.2-29.1c15.3-3.8 30.4-8 44.9-12.4l18-5.5 1.3 18.8c0.6 8.7 0.9 17.4 0.9 26 0 2.6 0 5.3-0.1 8.5z" p-id="6035" fill="#1296db"></path><path d="M869 516.3l-30-0.7c0.1-2.9 0.1-5.4 0.1-7.8 0-7.9-0.3-15.9-0.9-23.9l29.9-2.1c0.6 8.7 0.9 17.4 0.9 26 0.1 2.6 0.1 5.3 0 8.5zM526.6 460.5h-14l-1-13.9c-7.8-109.2-33.9-206.5-73.3-273.9l-11-18.9 21.6-3.5c19-3.1 38.5-4.6 58-4.6 50.7 0 99.8 10.3 145.9 30.6 16.1 7.1 31.9 15.5 46.8 24.9l10.8 6.8-5 11.8c-27.8 65.2-47 146.2-55.6 234.1l-29.9-2.9c8.4-85.6 26.6-165.1 52.9-230.8-10.4-6-21.2-11.5-32.1-16.3-42.3-18.6-87.3-28.1-133.8-28.1-10.6 0-21.3 0.5-31.9 1.5 35.7 69.8 59.1 163.6 66.6 267.3l-14.3 1v15l-0.7-0.1z" p-id="6036" fill="#1296db"></path><path d="M683.7 226.5c-13.7-8.6-28.2-16.3-42.9-22.8-42.3-18.6-87.3-28.1-133.8-28.1-17.8 0-35.7 1.4-53.2 4.2l-4.8-29.6c19-3.1 38.5-4.6 58-4.6 50.7 0 99.8 10.3 145.9 30.6 16.1 7.1 31.9 15.5 46.8 24.9l-16 25.4zM286.1 259.6l-19.9-22.4c24.2-21.6 51.2-39.8 80.2-54.1 32.4-16 66.9-27.1 102.6-32.8l4.8 29.6c-32.7 5.3-64.3 15.4-94 30.1-26.7 13.1-51.4 29.8-73.7 49.6z" p-id="6037" fill="#1296db"></path><path d="M315.6 470.4c-8.1-87.4-26.8-163.8-52.8-215.2l-5.2-10.3 8.6-7.7c24.2-21.6 51.2-39.8 80.2-54.1 32.4-16 66.9-27.1 102.6-32.8l10.1-1.6 5.2 8.9c41.7 71.3 69.1 173.2 77.3 286.9l-29.9 2.1c-7.5-104.4-31.6-197.9-68.2-264.9-29.1 5.6-57.2 15.1-83.8 28.3-23.2 11.5-45 25.7-65 42.3 25 54.2 42.9 130.1 50.8 215.4l-29.9 2.7z" p-id="6038" fill="#1296db"></path><path d="M177.2 466.6l-29.8-3.7c6.4-51.3 23.3-99.7 50.3-143.9 18.6-30.5 41.7-58 68.5-81.8l19.9 22.4c-24.6 21.9-45.7 47.1-62.8 75.1-24.7 40.5-40.3 84.9-46.1 131.9z" p-id="6039" fill="#1296db"></path><path d="M248.5 508c-32.4-8.4-63.2-18.2-91.6-29.3l-10.9-4.2 1.4-11.6c6.4-51.3 23.3-99.7 50.3-143.9 18.6-30.5 41.7-58 68.5-81.8l14.6-13 8.8 17.4c27.6 54.7 47.5 135 55.9 226l-29.9 2.8c-7.2-77.5-22.7-146.4-44.3-196.8-18.3 18.4-34.4 38.9-48 61.1-22.7 37.1-37.7 77.5-44.5 120.3 24.2 8.9 50.1 17 77.2 24l-7.5 29zM838.2 483.9c-3.9-55.2-21.8-109-51.7-155.5-26.2-40.8-61.8-76-102.8-101.9l16-25.4c44.7 28.2 83.5 66.6 112.1 111 32.6 50.7 52.1 109.4 56.4 169.6l-30 2.2z" p-id="6040" fill="#1296db"></path><path d="M811.1 510.1l-7.2-29.1c11.2-2.8 22.4-5.8 33.3-9-5.5-51-22.9-100.4-50.7-143.6-23-35.7-53.1-67.2-87.9-91.9-24.1 62.1-40.9 136.8-48.7 217.2l-29.9-2.9C628.9 360 648.9 276 677.9 208l6.9-16.2 14.9 9.4c44.7 28.2 83.5 66.6 112.1 111 32.6 50.7 52.1 109.4 56.4 169.6l0.8 11.9-11.4 3.5c-15.1 4.6-30.7 8.9-46.5 12.9zM506.9 870c-16.5 0-33.3-1.2-49.8-3.4l-21.2-2.9 10-18.9c41.8-79.4 66.7-195.2 68.1-317.7l0.2-14.9 16.1 0.1h3.6c31.9 0 64-1.2 95.3-3.7l16.7-1.3-0.5 16.7c-0.4 12.1-0.6 24.3-0.6 36.3 0 90 10.9 178 31.4 254.5l3.2 11.8-11 5.5C617.9 857.2 563.6 870 506.9 870z m-24.7-30.9c8.3 0.6 16.5 0.9 24.7 0.9 47.9 0 94-9.9 137.2-29.6-19.2-76.1-29.3-162.3-29.3-250.2 0-6.8 0.1-13.7 0.2-20.6-23.5 1.5-47.4 2.4-71.2 2.5-1.6 59.2-8.3 116.2-20 169.6-10.5 47.8-24.5 90.5-41.6 127.4z" p-id="6041" fill="#1296db"></path><path d="M506.9 870c-16.5 0-33.3-1.2-49.8-3.4l4.1-29.7c15.2 2.1 30.5 3.1 45.7 3.1 52 0 101.8-11.7 148.1-34.8l13.4 26.8c-50.5 25.2-104.8 38-161.5 38z" p-id="6042" fill="#1296db"></path><path d="M467.5 868l-10.4-1.4c-55.7-7.7-109.6-28.6-155.9-60.6l-8.5-5.9 2.5-10.1c16.2-64.9 24.8-141.6 24.8-221.7 0-18.9-0.5-38-1.5-56.7l-1-18.7 18.5 3.2c61.7 10.5 126.6 16 193 16.2l15.1 0.1-0.2 15.1c-0.8 64.6-7.6 126.6-20.3 184.4-12.4 56.3-29.6 105.8-51.3 146.9l-4.8 9.2z m-140.7-81c37.5 24.2 80 40.8 123.9 48.3 37.3-75.6 59.9-181 63-293.2-56.2-0.9-111.4-5.4-164.4-13.5 0.5 13.2 0.7 26.5 0.7 39.8 0 78.2-8 153.6-23.2 218.6z" p-id="6043" fill="#1296db"></path><path d="M457.1 866.6c-55.7-7.7-109.6-28.6-155.9-60.6l17.1-24.7c42.5 29.3 91.9 48.6 142.9 55.6l-4.1 29.7z" p-id="6044" fill="#1296db"></path><path d="M301.2 806c-43.1-29.8-80-69.4-106.6-114.5-27.7-47-44.1-98.4-48.6-152.8l29.9-2.5c8.3 99.1 60.2 188.4 142.4 245.2L301.2 806z" p-id="6045" fill="#1296db"></path><path d="M319 818.3L301.2 806c-43.1-29.8-80-69.4-106.6-114.5-27.7-47-44.1-98.4-48.6-152.8l29.9-2.5c7.7 91.6 52.7 175 124.4 231.9C313.2 708 320 639.5 320 568.3c0-14.9-0.3-30-0.9-44.8-24.2-4.4-47.9-9.6-70.6-15.5l7.5-29c25.6 6.6 52.5 12.3 80 17l11.8 2 0.6 12c1 19.2 1.5 38.9 1.5 58.3 0 82.5-8.9 161.7-25.7 229l-5.2 21zM668.4 832.1L655 805.2C765.7 750 836.2 639 839 515.6l30 0.7c-1.5 66.9-21.5 132-57.8 188-35.3 54.6-84.7 98.8-142.8 127.8z" p-id="6046" fill="#1296db"></path><path d="M652 840.3l-4.8-17.7c-21.2-79-32.4-169.7-32.4-262.3 0-12.3 0.2-24.8 0.6-37.2l0.4-13.4 13.4-1c61.3-4.7 120.1-14 174.7-27.6l7.2 29.1c-52.2 13-108 22.1-166.1 27.3-0.2 7.7-0.2 15.3-0.2 22.9 0 82.8 9.2 164 26.7 236.2 101.1-57.9 164.8-163.8 167.5-281l30 0.7c-1.5 66.9-21.5 132-57.8 188-35.3 54.6-84.7 98.8-142.8 127.8l-16.4 8.2z" p-id="6047" fill="#1296db"></path><path d="M533.9 542.2h-3.7l-16.3-0.1 0.1-15.1c0-3.9 0.1-7.8 0.1-11.6 0-23.1-0.8-46.3-2.5-68.9l-1.2-16.1h16.7v15l14.3-1c1.6 22.3 2.4 45.1 2.5 67.8 24-0.2 48.1-1.1 71.8-2.7 0.9-19.7 2.3-39.4 4.1-58.7l29.9 2.9c-2.2 23-3.8 46.6-4.5 70.2l-0.4 13.4-13.4 1c-31.9 2.7-64.8 3.9-97.5 3.9z" p-id="6048" fill="#1296db"></path><path d="M543.8 542.3l-14.9-0.1c-68.1-0.3-134.7-5.9-197.9-16.7l-11.8-2-0.6-12c-0.7-13.8-1.7-27.7-3-41.1l29.9-2.8c0.9 9.9 1.7 20.1 2.4 30.3 53.5 8.5 109.3 13.3 166.3 14.1-0.1-21.9-0.9-44-2.4-65.5l29.9-2.1c1.7 23.4 2.5 47.3 2.5 71.1 0 3.9 0 7.9-0.1 11.9l-0.3 14.9z" p-id="6049" fill="#1296db"></path><path d="M349.5 528.7l-18.5-3.2c-28.3-4.8-56.1-10.7-82.5-17.6l7.5-29c19.8 5.1 40.3 9.7 61.4 13.7-0.5-7.5-1.1-14.9-1.8-22.2l29.9-2.8c1.3 13.9 2.3 28.1 3.1 42.3l0.9 18.8zM614.8 539.8l0.5-16.7c0.8-24.3 2.4-48.6 4.7-72.2l29.9 2.9c-1.7 17.5-3 35.4-3.9 53.4 55.2-5.1 108.3-13.9 157.8-26.2l7.2 29.1c-56.2 14-116.6 23.5-179.6 28.4l-16.6 1.3z" p-id="6050" fill="#1296db"></path></svg>