<?xml version="1.0" standalone="no"?><!DOCTYPE svg PUBLIC "-//W3C//DTD SVG 1.1//EN" "http://www.w3.org/Graphics/SVG/1.1/DTD/svg11.dtd"><svg t="1624079807868" class="icon" viewBox="0 0 1024 1024" version="1.1" xmlns="http://www.w3.org/2000/svg" p-id="19966" xmlns:xlink="http://www.w3.org/1999/xlink" width="200" height="200"><defs><style type="text/css"></style></defs><path d="M807.3728 933.9392H213.3504c-40.3456 0-78.3872-17.664-104.448-48.4352s-37.1712-71.2704-30.464-111.0528L174.2848 204.032a136.3712 136.3712 0 0 1 134.912-114.1248h401.1008c66.9184 0 123.648 47.872 134.8608 113.8688l97.0752 570.4704c6.7584 39.8336-4.3008 80.3328-30.3104 111.2064s-64.1536 48.4864-104.5504 48.4864zM309.1968 151.296c-36.9664 0-68.1984 26.4704-74.3424 62.8736L139.008 784.64c-3.6864 21.9136 2.4576 44.1856 16.7936 61.184 14.336 16.9472 35.328 26.6752 57.5488 26.6752h594.0224c22.272 0 43.264-9.728 57.6-26.7264 14.336-16.9984 20.4288-39.3216 16.6912-61.2352L784.5888 214.0672a75.17184 75.17184 0 0 0-74.2912-62.72H309.1968zM204.5952 209.1008z" fill="#8a8a8a" p-id="19967"></path><path d="M510.464 505.8048c-101.4272 0-184.0128-82.5344-184.0128-184.0128 0-16.9472 13.7728-30.72 30.72-30.72s30.72 13.7728 30.72 30.72c0 67.584 54.9888 122.5728 122.5728 122.5728s122.5728-54.9888 122.5728-122.5728c0-16.9472 13.7728-30.72 30.72-30.72s30.72 13.7728 30.72 30.72c0 101.4784-82.5344 184.0128-184.0128 184.0128z" fill="#8a8a8a" p-id="19968"></path></svg>