<?xml version="1.0" standalone="no"?><!DOCTYPE svg PUBLIC "-//W3C//DTD SVG 1.1//EN" "http://www.w3.org/Graphics/SVG/1.1/DTD/svg11.dtd"><svg t="1623121952148" class="icon" viewBox="0 0 1024 1024" version="1.1" xmlns="http://www.w3.org/2000/svg" p-id="6958" xmlns:xlink="http://www.w3.org/1999/xlink" width="200" height="200"><defs><style type="text/css"></style></defs><path d="M512 0C228.693333 0 0 228.693333 0 512s228.693333 512 512 512 512-228.693333 512-512S795.306667 0 512 0z m-10.24 450.56s51.2 6.826667 88.746667 27.306667c47.786667 30.72 92.16 102.4 92.16 102.4h-180.906667v-129.706667z m-78.506667 30.72c23.893333 0 44.373333 20.48 44.373334 44.373333 0 23.893333-20.48 44.373333-44.373334 44.373334-23.893333 0-44.373333-20.48-44.373333-44.373334 0-23.893333 17.066667-44.373333 44.373333-44.373333z m385.706667 228.693333c0 23.893333-27.306667 40.96-51.2 40.96h-3.413333c-23.893333 0-47.786667-17.066667-47.786667-40.96V682.666667h-375.466667v27.306666c0 23.893333-3.413333 40.96-27.306666 40.96h-3.413334c-23.893333 0-37.546667-17.066667-37.546666-40.96V314.026667c0-23.893333 13.653333-40.96 37.546666-40.96h3.413334c23.893333 0 27.306667 13.653333 27.306666 40.96V614.4h375.466667v-119.466667c0-23.893333 23.893333-51.2 47.786667-51.2h3.413333c23.893333 0 51.2 27.306667 51.2 51.2v215.04z" fill="#1296db" p-id="6959"></path></svg>