<?xml version="1.0" standalone="no"?><!DOCTYPE svg PUBLIC "-//W3C//DTD SVG 1.1//EN" "http://www.w3.org/Graphics/SVG/1.1/DTD/svg11.dtd"><svg t="1624079560374" class="icon" viewBox="0 0 1024 1024" version="1.1" xmlns="http://www.w3.org/2000/svg" p-id="14701" xmlns:xlink="http://www.w3.org/1999/xlink" width="200" height="200"><defs><style type="text/css"></style></defs><path d="M308.263225 733.163861l45.190685-73.819868C261.103338 602.806948 205.965653 504.519914 205.965653 396.408504c0-169.834745 138.168806-308.00355 308.00355-308.003551s308.010763 138.168806 308.010763 308.003551c0 105.053014-52.764543 201.85413-141.155069 258.939378l46.957918 72.709035c113.182288-73.098547 180.762739-197.078993 180.762739-331.648413 0-217.564475-177.004663-394.561925-394.569138-394.561925s-394.561925 177.004663-394.561925 394.561925c-0.007213 138.478973 70.595568 264.370916 188.848734 336.755357z" fill="#8a8a8a" p-id="14702"></path><path d="M557.255604 272.990688H470.690016v664.450937H152.955861v86.558375h722.026684v-86.558375H557.255604z" fill="#8a8a8a" p-id="14703"></path></svg>