<?xml version="1.0" standalone="no"?><!DOCTYPE svg PUBLIC "-//W3C//DTD SVG 1.1//EN" "http://www.w3.org/Graphics/SVG/1.1/DTD/svg11.dtd"><svg t="1624079116986" class="icon" viewBox="0 0 1024 1024" version="1.1" xmlns="http://www.w3.org/2000/svg" p-id="3312" xmlns:xlink="http://www.w3.org/1999/xlink" width="200" height="200"><defs><style type="text/css"></style></defs><path d="M810.666667 277.333333h-42.666667V192c0-36.266667-27.733333-64-64-64H320c-36.266667 0-64 27.733333-64 64v85.333333h-42.666667c-36.266667 0-64 27.733333-64 64v490.666667c0 36.266667 27.733333 64 64 64h597.333334c36.266667 0 64-27.733333 64-64V341.333333c0-36.266667-27.733333-64-64-64z m0 42.666667c12.8 0 21.333333 8.533333 21.333333 21.333333v170.666667h-64v-192h42.666667zM320 170.666667h384c12.8 0 21.333333 8.533333 21.333333 21.333333v320H298.666667V192c0-12.8 8.533333-21.333333 21.333333-21.333333z m-106.666667 149.333333h42.666667v192H192v-170.666667c0-12.8 8.533333-21.333333 21.333333-21.333333z m597.333334 533.333333H213.333333c-12.8 0-21.333333-8.533333-21.333333-21.333333V554.666667h640v277.333333c0 12.8-8.533333 21.333333-21.333333 21.333333z" p-id="3313" fill="#8a8a8a"></path><path d="M426.666667 384c-10.666667 0-21.333333 8.533333-21.333334 21.333333 0 10.666667 10.666667 21.333333 21.333334 21.333334h64v21.333333c0 12.8 8.533333 21.333333 21.333333 21.333333s21.333333-8.533333 21.333333-21.333333v-21.333333h64c10.666667 0 21.333333-10.666667 21.333334-21.333334 0-12.8-10.666667-21.333333-21.333334-21.333333h-64v-42.666667h64c10.666667 0 21.333333-10.666667 21.333334-21.333333s-10.666667-21.333333-21.333334-21.333333h-44.8l38.4-38.4c8.533333-8.533333 8.533333-21.333333 0-29.866667-8.533333-8.533333-21.333333-8.533333-29.866666 0L512 279.466667l-49.066667-49.066667c-8.533333-8.533333-21.333333-8.533333-29.866666 0-8.533333 8.533333-8.533333 21.333333 0 29.866667l38.4 38.4H426.666667c-10.666667 0-21.333333 10.666667-21.333334 21.333333s10.666667 21.333333 21.333334 21.333333h64v42.666667h-64z" p-id="3314" fill="#8a8a8a"></path></svg>